<svg width="48" height="48" viewBox="0 0 48 48" fill="none" xmlns="http://www.w3.org/2000/svg">
<rect width="48" height="48" rx="6" fill="black"/>
<path fill-rule="evenodd" clip-rule="evenodd" d="M34.5001 24C34.5001 23.8011 34.4211 23.6103 34.2805 23.4696C34.1398 23.329 33.949 23.25 33.7501 23.25H16.0606L20.7811 18.531C20.8509 18.4612 20.9062 18.3785 20.9439 18.2873C20.9816 18.1962 21.0011 18.0986 21.0011 18C21.0011 17.9014 20.9816 17.8037 20.9439 17.7126C20.9062 17.6215 20.8509 17.5387 20.7811 17.469C20.7114 17.3992 20.6286 17.3439 20.5375 17.3062C20.4464 17.2684 20.3487 17.249 20.2501 17.249C20.1515 17.249 20.0539 17.2684 19.9627 17.3062C19.8716 17.3439 19.7889 17.3992 19.7191 17.469L13.7191 23.469C13.6493 23.5386 13.5939 23.6214 13.5561 23.7125C13.5182 23.8036 13.4988 23.9013 13.4988 24C13.4988 24.0986 13.5182 24.1963 13.5561 24.2874C13.5939 24.3785 13.6493 24.4613 13.7191 24.531L19.7191 30.531C19.7889 30.6007 19.8716 30.656 19.9627 30.6938C20.0539 30.7315 20.1515 30.7509 20.2501 30.7509C20.3487 30.7509 20.4464 30.7315 20.5375 30.6938C20.6286 30.656 20.7114 30.6007 20.7811 30.531C20.8509 30.4612 20.9062 30.3785 20.9439 30.2873C20.9816 30.1962 21.0011 30.0986 21.0011 30C21.0011 29.9014 20.9816 29.8037 20.9439 29.7126C20.9062 29.6215 20.8509 29.5387 20.7811 29.469L16.0606 24.75H33.7501C33.949 24.75 34.1398 24.671 34.2805 24.5303C34.4211 24.3896 34.5001 24.1989 34.5001 24Z" fill="#FFFFD3"/>
</svg>
