<svg width="16" height="13" viewBox="0 0 16 13" fill="none" xmlns="http://www.w3.org/2000/svg">
<g id="Group 1">
<path id="Vector" d="M8.50087 0.562334C8.50087 1.00305 8.50087 1.44377 8.50087 1.89785C8.76943 1.88235 8.76943 1.88235 9.04342 1.86654C10.6999 1.87532 12.1846 2.41896 13.509 3.40029C13.6218 3.51844 13.7346 3.63658 13.8507 3.7583C14.3097 4.19428 14.7296 4.18762 15.3454 4.23499C15.5332 4.86101 15.5332 4.86101 15.3454 5.23662C10.4975 5.23662 5.64955 5.23662 0.654745 5.23662C0.487806 4.56887 0.487806 4.56887 0.654745 4.23499C0.823458 4.22466 0.99217 4.21433 1.166 4.20369C1.76308 4.13802 2.03667 3.9234 2.4702 3.51506C3.68229 2.37538 5.27372 1.88279 6.92538 1.87698C7.11476 1.88386 7.30413 1.89075 7.49924 1.89785C7.49924 1.45713 7.49924 1.01641 7.49924 0.562334C7.91507 0.354418 8.06863 0.432663 8.50087 0.562334ZM3.65964 4.23499C6.52431 4.23499 9.38898 4.23499 12.3405 4.23499C11.1621 3.05658 9.58573 2.9947 8.00005 2.98295C6.41438 2.9947 4.83805 3.05658 3.65964 4.23499Z" fill="black"/>
<path id="Vector_2" d="M1.99028 5.90442C2.32082 5.90442 2.65136 5.90442 2.99191 5.90442C2.99435 6.0467 2.99678 6.18899 2.99929 6.33558C3.00952 6.86611 3.0219 7.39652 3.03573 7.92696C3.04126 8.15605 3.04595 8.38516 3.04975 8.61428C3.05538 8.9446 3.06437 9.27487 3.07343 9.60511C3.0778 9.80356 3.08217 10.002 3.08667 10.2065C3.16516 10.7927 3.29881 11.1149 3.65967 11.5803C4.12907 11.7368 4.42278 11.77 4.90902 11.7742C5.13554 11.7766 5.13554 11.7766 5.36663 11.779C5.61078 11.7801 5.61078 11.7801 5.85987 11.7812C6.02763 11.7821 6.19539 11.7831 6.36823 11.7841C6.72326 11.7856 7.07829 11.7867 7.43332 11.7874C7.97594 11.789 8.51846 11.7942 9.06105 11.7994C9.40602 11.8005 9.75098 11.8014 10.0959 11.8021C10.258 11.8041 10.4201 11.8062 10.5871 11.8083C11.7165 11.8091 11.7165 11.8091 12.6744 11.2465C12.8616 10.6846 12.876 10.2297 12.8941 9.63772C12.9011 9.42091 12.9081 9.2041 12.9153 8.98072C12.922 8.75173 12.9286 8.52273 12.9352 8.29373C12.9424 8.06277 12.9497 7.83182 12.9571 7.60087C12.9748 7.0354 12.9918 6.46992 13.0082 5.90442C13.3388 5.90442 13.6693 5.90442 14.0099 5.90442C14.0099 6.12478 14.0099 6.34514 14.0099 6.57217C14.4506 6.57217 14.8913 6.57217 15.3454 6.57217C15.5332 7.19819 15.5332 7.19819 15.3454 7.57381C14.9047 7.57381 14.464 7.57381 14.0099 7.57381C14.0151 7.74799 14.0151 7.74799 14.0205 7.9257C14.0344 8.45527 14.0431 8.98479 14.0516 9.51447C14.0572 9.69717 14.0628 9.87987 14.0686 10.0681C14.0813 11.1206 14.0842 11.801 13.3421 12.582C12.8065 12.9187 12.3835 12.9594 11.7563 12.9643C11.5724 12.9665 11.3885 12.9686 11.1991 12.9708C11.0012 12.9712 10.8033 12.9715 10.5994 12.9719C10.3952 12.973 10.191 12.9742 9.98064 12.9753C9.54872 12.977 9.11679 12.9778 8.68487 12.9777C8.02462 12.9784 7.36456 12.9845 6.70435 12.9908C6.28461 12.9918 5.86487 12.9925 5.44513 12.9928C5.24791 12.9952 5.05068 12.9976 4.84748 13.0001C3.7986 12.9942 3.10182 12.9889 2.32416 12.2481C1.94877 11.7254 1.95094 11.2718 1.95768 10.6387C1.95875 10.4601 1.95983 10.2815 1.96094 10.0975C1.96373 9.91195 1.96653 9.72646 1.96941 9.53534C1.97092 9.34726 1.97243 9.15918 1.97398 8.9654C1.97791 8.5015 1.9834 8.03767 1.99028 7.57381C1.54956 7.57381 1.10884 7.57381 0.654771 7.57381C0.466964 6.94779 0.466964 6.94779 0.654771 6.57217C1.09549 6.57217 1.53621 6.57217 1.99028 6.57217C1.99028 6.35181 1.99028 6.13146 1.99028 5.90442Z" fill="black"/>
<path id="Vector 1" d="M8 6.23828V10.2448" stroke="black" stroke-width="1.2"/>
<path id="Vector 2" d="M5.99683 8.24158H10.0034" stroke="black" stroke-width="1.2"/>
</g>
</svg>
