<svg width="16" height="16" viewBox="0 0 16 16" fill="none" xmlns="http://www.w3.org/2000/svg">
<g id="Icon">
<path id="Vector" fill-rule="evenodd" clip-rule="evenodd" d="M7.6459 4.64604C7.69234 4.59948 7.74752 4.56253 7.80827 4.53733C7.86901 4.51212 7.93413 4.49915 7.9999 4.49915C8.06567 4.49915 8.13079 4.51212 8.19153 4.53733C8.25228 4.56253 8.30745 4.59948 8.3539 4.64604L14.3539 10.646C14.4478 10.7399 14.5005 10.8673 14.5005 11C14.5005 11.1328 14.4478 11.2602 14.3539 11.354C14.26 11.4479 14.1327 11.5007 13.9999 11.5007C13.8671 11.5007 13.7398 11.4479 13.6459 11.354L7.9999 5.70704L2.3539 11.354C2.26001 11.4479 2.13267 11.5007 1.9999 11.5007C1.86712 11.5007 1.73979 11.4479 1.6459 11.354C1.55201 11.2602 1.49927 11.1328 1.49927 11C1.49927 10.8673 1.55201 10.7399 1.6459 10.646L7.6459 4.64604Z" fill="black"/>
</g>
</svg>
